# xmcd
#
# Track frame offsets:
#	150
#	12972
#	23097
#	34045
#	44850
#	56620
#	66150
#	75712
#
# Disc length: 1165 seconds
#
# Revision: 0
# Processed by: cddbd v1.5.2PL0 Copyright (c) Steve Scherf et al.
# Submitted via: EasyCDDAExtractor 12.0.0.1
#
DISCID=64048b08
DTITLE=France Gall - Sacré Charlemagne
DYEAR=1995
DGENRE=Chanson
TTITLE0=Sacré Charlemagne
TTITLE1=Nounours
TTITLE2=Le premier chagrin d'amour
TTITLE3=On t'avait prévenue
TTITLE4=Christiansen
TTITLE5=Au clair de la lune
TTITLE6=Laisse tomber les filles
TTITLE7=Bonne nuit
EXTD=
EXTT0=
EXTT1=
EXTT2=
EXTT3=
EXTT4=
EXTT5=
EXTT6=
EXTT7=
PLAYORDER=
